<?xml version="1.0" encoding="UTF-8"?>
<svg version="1.1" xmlns="http://www.w3.org/2000/svg" width="512" height="512">
<path d="M0 0 C0 0.66 0 1.32 0 2 C4.62 1.67 9.24 1.34 14 1 C14 1.66 14 2.32 14 3 C15.32 2.67 16.64 2.34 18 2 C18 2.66 18 3.32 18 4 C19.32 3.67 20.64 3.34 22 3 C22 3.66 22 4.32 22 5 C23.485 4.505 23.485 4.505 25 4 C25 4.66 25 5.32 25 6 C26.485 5.505 26.485 5.505 28 5 C28.66 5.33 29.32 5.66 30 6 C30 6.66 30 7.32 30 8 C31.485 7.505 31.485 7.505 33 7 C41.31620312 10.95746105 52.34216627 18.24097113 56 27 C56.66 27 57.32 27 58 27 C62.11114228 32.47822092 65.78743663 38.5005951 68 45 C67.67 45.66 67.34 46.32 67 47 C67.66 47.33 68.32 47.66 69 48 C68.67 48.66 68.34 49.32 68 50 C68.66 50.33 69.32 50.66 70 51 C69.67 51.99 69.34 52.98 69 54 C69.66 54.33 70.32 54.66 71 55 C70.67 55.66 70.34 56.32 70 57 C70.66 57.33 71.32 57.66 72 58 C71.67 59.32 71.34 60.64 71 62 C71.66 62.33 72.32 62.66 73 63 C73 132.63 73 202.26 73 274 C72.34 274 71.68 274 71 274 C71.33 275.98 71.66 277.96 72 280 C71.34 280 70.68 280 70 280 C70.33 281.32 70.66 282.64 71 284 C70.34 284 69.68 284 69 284 C69.33 285.32 69.66 286.64 70 288 C69.34 288 68.68 288 68 288 C68.33 288.99 68.66 289.98 69 291 C68.34 291 67.68 291 67 291 C67.33 291.99 67.66 292.98 68 294 C66.78515625 296.91796875 66.78515625 296.91796875 65.0625 300.1875 C64.49660156 301.27417969 63.93070312 302.36085938 63.34765625 303.48046875 C62.90292969 304.31191406 62.45820313 305.14335937 62 306 C61.34 306 60.68 306 60 306 C59.67 307.32 59.34 308.64 59 310 C58.34 310 57.68 310 57 310 C56.67 311.32 56.34 312.64 56 314 C55.34 314 54.68 314 54 314 C53.67 314.99 53.34 315.98 53 317 C52.34 317 51.68 317 51 317 C51 317.66 51 318.32 51 319 C49.13671875 320.7265625 49.13671875 320.7265625 46.6875 322.625 C45.88699219 323.25664062 45.08648437 323.88828125 44.26171875 324.5390625 C42 326 42 326 39 326 C38.67 326.66 38.34 327.32 38 328 C36.66666667 328.33333333 35.33333333 328.66666667 34 329 C33.67 329.66 33.34 330.32 33 331 C32.34 330.67 31.68 330.34 31 330 C30.67 330.66 30.34 331.32 30 332 C26.5625 333.6875 26.5625 333.6875 23 335 C22.34 334.67 21.68 334.34 21 334 C20.67 334.66 20.34 335.32 20 336 C19.01 335.67 18.02 335.34 17 335 C16.67 335.66 16.34 336.32 16 337 C15.01 336.67 14.02 336.34 13 336 C12.67 336.66 12.34 337.32 12 338 C10.35 337.67 8.7 337.34 7 337 C7 337.66 7 338.32 7 339 C-59.66 339 -126.32 339 -195 339 C-195 338.34 -195 337.68 -195 337 C-196.5159375 337.0309375 -196.5159375 337.0309375 -198.0625 337.0625 C-201.80327257 337.00312266 -205.31244898 336.60204915 -209 336 C-209 335.34 -209 334.68 -209 334 C-209.99 334.33 -210.98 334.66 -212 335 C-212.99 334.67 -213.98 334.34 -215 334 C-215 333.34 -215 332.68 -215 332 C-215.680625 332.0825 -216.36125 332.165 -217.0625 332.25 C-221.16875665 331.90053135 -223.52321895 330.18150968 -227 328 C-227 327.34 -227 326.68 -227 326 C-228.32 325.67 -229.64 325.34 -231 325 C-231 324.34 -231 323.68 -231 323 C-232.32 322.67 -233.64 322.34 -235 322 C-235 321.34 -235 320.68 -235 320 C-235.58136719 319.74734375 -236.16273438 319.4946875 -236.76171875 319.234375 C-243.58799552 315.46979654 -247.65661905 308.32730822 -251.0625 301.5625 C-251.37356689 300.94729492 -251.68463379 300.33208984 -252.00512695 299.69824219 C-252.74084387 298.16413065 -253.37937473 296.58417229 -254 295 C-253.67 294.34 -253.34 293.68 -253 293 C-253.66 292.67 -254.32 292.34 -255 292 C-255.33 291.34 -255.66 290.68 -256 290 C-255.67 289.01 -255.34 288.02 -255 287 C-255.66 286.67 -256.32 286.34 -257 286 C-256.67 285.34 -256.34 284.68 -256 284 C-256.66 283.67 -257.32 283.34 -258 283 C-257.67 281.35 -257.34 279.7 -257 278 C-257.66 277.67 -258.32 277.34 -259 277 C-259.02531626 269.79175566 -259.04285262 262.58352275 -259.05493164 255.37524414 C-259.0599662 252.92211478 -259.06679424 250.46898843 -259.07543945 248.01586914 C-259.08754332 244.4936448 -259.09323703 240.97146006 -259.09765625 237.44921875 C-259.10281754 236.34913986 -259.10797882 235.24906097 -259.11329651 234.11564636 C-259.11337204 233.09481461 -259.11344757 232.07398285 -259.11352539 231.0222168 C-259.115746 230.12286911 -259.11796661 229.22352142 -259.12025452 228.29692078 C-259 226 -259 226 -258 223 C-258.66 223 -259.32 223 -260 223 C-260 192.97 -260 162.94 -260 132 C-259.34 132 -258.68 132 -258 132 C-258 126.06 -258 120.12 -258 114 C-258.66 114 -259.32 114 -260 114 C-260 111.36 -260 108.72 -260 106 C-259.34 106 -258.68 106 -258 106 C-258 99.73 -258 93.46 -258 87 C-258.66 87 -259.32 87 -260 87 C-259.67 78.42 -259.34 69.84 -259 61 C-258.01 60.505 -258.01 60.505 -257 60 C-257.33 58.02 -257.66 56.04 -258 54 C-257.34 54 -256.68 54 -256 54 C-256.33 52.68 -256.66 51.36 -257 50 C-256.34 50 -255.68 50 -255 50 C-255.495 48.515 -255.495 48.515 -256 47 C-255.67 46.34 -255.34 45.68 -255 45 C-254.34 45 -253.68 45 -253 45 C-253.495 43.515 -253.495 43.515 -254 42 C-253.00390625 39.51953125 -253.00390625 39.51953125 -251.5625 36.8125 C-250.85287109 35.46091797 -250.85287109 35.46091797 -250.12890625 34.08203125 C-249.75636719 33.39496094 -249.38382813 32.70789063 -249 32 C-248.34 32 -247.68 32 -247 32 C-246.690625 31.38125 -246.38125 30.7625 -246.0625 30.125 C-245.375 28.75 -244.6875 27.375 -244 26 C-243.34 26 -242.68 26 -242 26 C-241.61328125 25.12601563 -241.61328125 25.12601563 -241.21875 24.234375 C-239.90165983 21.8197097 -238.44911616 20.18259823 -236.5 18.25 C-235.58734375 17.32960938 -235.58734375 17.32960938 -234.65625 16.390625 C-233 15 -233 15 -231 15 C-230.67 14.34 -230.34 13.68 -230 13 C-225.39702333 9.59828797 -220.37564664 6.93523279 -215 5 C-214.34 5.33 -213.68 5.66 -213 6 C-212.67 5.34 -212.34 4.68 -212 4 C-211.01 4.33 -210.02 4.66 -209 5 C-208.67 4.34 -208.34 3.68 -208 3 C-207.34 3.33 -206.68 3.66 -206 4 C-205.67 3.34 -205.34 2.68 -205 2 C-200.7166834 0.71849731 -196.32726103 0.84752716 -191.89533997 0.84178162 C-190.67823343 0.83437465 -190.67823343 0.83437465 -189.43653888 0.82681805 C-186.7204713 0.81147272 -184.00442731 0.80309039 -181.28833008 0.79467773 C-179.34012139 0.78509673 -177.39191477 0.77508652 -175.44371033 0.76467896 C-170.15479785 0.73764423 -164.86587646 0.71662592 -159.57693315 0.69667697 C-154.04717785 0.6748027 -148.51744991 0.64741972 -142.98771667 0.62062073 C-132.51423769 0.57070305 -122.04074345 0.52576326 -111.56723469 0.48259836 C-99.65174668 0.43324562 -87.73628646 0.37830884 -75.82082522 0.32291877 C-57.32172726 0.23703769 -38.82261808 0.15419978 -20.32348633 0.07592773 C-19.38891476 0.07196424 -18.45434319 0.06800076 -17.49145126 0.06391716 C-14.90220414 0.05296043 -12.31295672 0.04207666 -9.72370911 0.03123474 C-8.58195188 0.0264215 -8.58195188 0.0264215 -7.41712886 0.02151102 C-2.23494681 0 -2.23494681 0 0 0 Z " fill="#E2E6E6" transform="translate(359,86)"/>
<path d="M0 0 C0.76166977 0.00222061 1.52333954 0.00444122 2.30809021 0.00672913 C3.16890701 0.00680466 4.02972382 0.00688019 4.91662598 0.00695801 C5.8520372 0.01211929 6.78744843 0.01728058 7.75120544 0.02259827 C8.70422043 0.02401321 9.65723541 0.02542816 10.63912964 0.02688599 C13.69605085 0.032503 16.75289996 0.04505836 19.80979919 0.05775452 C21.87685543 0.06276733 23.94391281 0.06733061 26.01097107 0.07142639 C31.08977507 0.08247795 36.16852489 0.09975397 41.24729919 0.12025452 C41.74229919 3.09025452 41.74229919 3.09025452 42.24729919 6.12025452 C39.69850998 7.64952804 37.1555542 9.17146102 34.55979919 10.62025452 C31.99797405 12.0650309 31.99797405 12.0650309 30.24729919 15.12025452 C29.95881089 17.19924174 29.95881089 17.19924174 30.02024841 19.49989319 C30.02047501 20.82092293 30.02047501 20.82092293 30.02070618 22.16864014 C30.03102875 23.11560257 30.04135132 24.062565 30.05198669 25.03822327 C30.05623154 26.49679497 30.05623154 26.49679497 30.06056213 27.98483276 C30.0717632 31.09259817 30.09686772 34.20007611 30.12229919 37.30775452 C30.13232909 39.41387015 30.14145492 41.51999029 30.14964294 43.62611389 C30.17170231 48.79093831 30.20623174 53.95554766 30.24729919 59.12025452 C32.33932956 56.87497908 34.43032472 54.62875464 36.52073669 52.38197327 C37.11040222 51.74932556 37.70006775 51.11667786 38.30760193 50.46485901 C41.21963287 47.33345643 44.10302878 44.19237404 46.87229919 40.93275452 C49.65177153 37.69808323 52.64037062 34.73137666 55.68479919 31.74525452 C65.6763313 22.42629108 65.6763313 22.42629108 70.24729919 10.12025452 C69.13354919 9.99650452 68.01979919 9.87275452 66.87229919 9.74525452 C63.24729919 9.12025452 63.24729919 9.12025452 61.24729919 7.12025452 C60.99729919 4.62025452 60.99729919 4.62025452 61.24729919 2.12025452 C63.87076812 -0.5032144 65.76986659 -0.13911051 69.34310913 -0.18328857 C70.59312462 -0.18192146 70.59312462 -0.18192146 71.86839294 -0.18052673 C73.1519442 -0.18695442 73.1519442 -0.18695442 74.46142578 -0.19351196 C76.27293512 -0.19926017 78.08446755 -0.19975192 79.89598083 -0.19541931 C82.67038825 -0.19226188 85.44372706 -0.21570289 88.21800232 -0.24107361 C89.97646451 -0.24334678 91.73492958 -0.24405002 93.49339294 -0.24302673 C94.32471237 -0.25223648 95.1560318 -0.26144623 96.01254272 -0.27093506 C101.82058963 -0.2242023 101.82058963 -0.2242023 103.98278809 1.52120972 C105.24729919 3.12025452 105.24729919 3.12025452 105.36839294 5.07728577 C103.351086 8.75342351 99.09104165 9.98944478 95.40940857 11.68080139 C84.37880037 17.090576 75.99576021 27.23574334 67.43479919 35.87025452 C66.41485659 36.89523267 65.3946752 37.91997326 64.37425232 38.94447327 C62.50387882 40.82290455 60.63515764 42.7029225 58.76756287 44.5841217 C56.26602062 47.10141521 53.75799459 49.61209318 51.24729919 52.12025452 C53.02445927 56.24285259 55.79110711 59.6418815 58.49729919 63.18275452 C59.587947 64.62224984 60.67775633 66.06238073 61.76683044 67.50306702 C62.33740173 68.25749084 62.90797302 69.01191467 63.49583435 69.78919983 C66.42511376 73.68782818 69.30188813 77.6247925 72.18479919 81.55775452 C76.83837955 87.8917406 81.53894401 94.18656087 86.30979919 100.43275452 C86.83372253 101.11974426 87.35764587 101.80673401 87.89744568 102.51454163 C89.33691527 104.39155412 90.78909394 106.25777654 92.24729919 108.12025452 C92.67986023 108.68421936 93.11242126 109.2481842 93.55809021 109.82923889 C96.09359533 113.03363769 98.41894227 115.14765548 102.05979919 116.99525452 C102.84999451 117.40517639 103.64018982 117.81509827 104.45433044 118.23744202 C105.04601013 118.52877014 105.63768982 118.82009827 106.24729919 119.12025452 C105.37229919 124.99525452 105.37229919 124.99525452 104.24729919 126.12025452 C101.31364173 126.23378468 98.40441458 126.28444159 95.46995544 126.28822327 C94.58827194 126.29155167 93.70658844 126.29488007 92.79818726 126.29830933 C90.92942325 126.30338235 89.06065016 126.30571754 87.19187927 126.30555725 C84.32543575 126.3077426 81.4593776 126.32589106 78.59300232 126.34486389 C76.78115468 126.3477979 74.96930521 126.34978265 73.15745544 126.35072327 C72.2959639 126.35790878 71.43447235 126.3650943 70.546875 126.37249756 C64.47612079 126.34907611 64.47612079 126.34907611 62.24729919 124.12025452 C62.12229919 121.49525452 62.12229919 121.49525452 62.24729919 119.12025452 C64.55729919 118.13025452 66.86729919 117.14025452 69.24729919 116.12025452 C68.81233822 110.93037921 66.10531733 107.8751072 62.99729919 103.93275452 C61.90455228 102.51341283 60.81346865 101.09278938 59.72386169 99.67103577 C58.86969666 98.56042786 58.86969666 98.56042786 57.99827576 97.42738342 C55.05085239 93.54378738 52.21298815 89.58224628 49.37229919 85.62025452 C48.33381727 84.17192139 47.29477376 82.72399073 46.25511169 81.27650452 C45.76430115 80.59201233 45.2734906 79.90752014 44.76780701 79.20228577 C42.68275451 76.34722352 40.51978119 73.55348876 38.34446716 70.76673889 C37.24729919 69.12025452 37.24729919 69.12025452 37.24729919 67.12025452 C36.58729919 67.12025452 35.92729919 67.12025452 35.24729919 67.12025452 C34.97917419 67.71837952 34.71104919 68.31650452 34.43479919 68.93275452 C33.24729919 71.12025452 33.24729919 71.12025452 31.69798279 72.27333069 C29.42341816 75.16917071 29.81954384 78.32806843 29.84886169 81.85853577 C29.84455643 82.9961158 29.84455643 82.9961158 29.84016418 84.15667725 C29.8381235 85.76132452 29.84365374 87.36599668 29.85618591 88.97059631 C29.87217407 91.41363519 29.85637323 93.855003 29.83714294 96.29798889 C29.83912668 97.85984147 29.84297306 99.42169302 29.84886169 100.98353577 C29.842789 101.70873917 29.83671631 102.43394257 29.83045959 103.18112183 C29.89484663 107.88319224 30.73486354 111.13956607 33.24729919 115.12025452 C35.68351372 116.66936784 35.68351372 116.66936784 38.43479919 117.49525452 C39.78638123 117.97091858 39.78638123 117.97091858 41.16526794 118.45619202 C41.85233826 118.67533264 42.53940857 118.89447327 43.24729919 119.12025452 C42.37229919 124.99525452 42.37229919 124.99525452 41.24729919 126.12025452 C38.16819394 126.24626738 35.11275527 126.30895052 32.03245544 126.32337952 C30.64334206 126.33192963 30.64334206 126.33192963 29.22616577 126.34065247 C27.26325122 126.35011703 25.30032068 126.3566422 23.33738708 126.36048889 C20.32595796 126.3702024 17.31520879 126.40121516 14.30393982 126.43275452 C12.4009491 126.43928337 10.49795348 126.4445343 8.59495544 126.44837952 C7.68971634 126.46072632 6.78447723 126.47307312 5.85180664 126.48579407 C5.01431381 126.48279297 4.17682098 126.47979187 3.31394958 126.47669983 C2.57528152 126.48034546 1.83661346 126.48399109 1.07556152 126.48774719 C-0.75270081 126.12025452 -0.75270081 126.12025452 -2.75270081 123.12025452 C-2.87770081 120.68275452 -2.87770081 120.68275452 -1.75270081 118.12025452 C0.21830309 116.89969849 2.19310093 115.99184945 4.33714294 115.11244202 C6.58157902 114.14175048 6.58157902 114.14175048 8.24729919 111.12025452 C8.54350993 109.20516025 8.54350993 109.20516025 8.49453735 107.09718323 C8.49873184 106.28122177 8.50292633 105.46526031 8.50724792 104.62457275 C8.50162842 103.73305008 8.49600891 102.8415274 8.49021912 101.92298889 C8.49211746 100.98127335 8.49401581 100.0395578 8.49597168 99.06930542 C8.49968184 95.95078759 8.48897158 92.83250172 8.47776794 89.71400452 C8.47657614 87.55071541 8.47612298 85.38742577 8.47637939 83.22413635 C8.4748141 78.68801133 8.46652096 74.15196517 8.45310974 69.61585999 C8.43611989 63.79485194 8.43229539 57.97393063 8.43305492 52.1529007 C8.43278328 47.68516712 8.4273029 43.21745259 8.42005348 38.74972534 C8.41686633 36.6030695 8.4148993 34.4564115 8.41415977 32.30975342 C8.41199673 29.31230477 8.40325314 26.31494892 8.39256287 23.31752014 C8.39301605 22.42599747 8.39346924 21.53447479 8.39393616 20.61593628 C8.38967117 19.79997482 8.38540619 18.98401337 8.38101196 18.14332581 C8.37933612 17.43467628 8.37766027 16.72602676 8.37593365 15.99590302 C8.31032593 13.89170602 8.31032593 13.89170602 7.24729919 11.12025452 C5.18232533 10.13321499 5.18232533 10.13321499 2.74729919 9.49525452 C-1.68095193 8.1920034 -1.68095193 8.1920034 -2.75270081 7.12025452 C-2.87770081 4.12025452 -2.87770081 4.12025452 -2.75270081 1.12025452 C-1.75270081 0.12025452 -1.75270081 0.12025452 0 0 Z " fill="#0E0F11" transform="translate(266.75270080566406,184.87974548339844)"/>
<path d="M0 0 C28.38 0 56.76 0 86 0 C89.39473684 14.71052632 89.39473684 14.71052632 89.75 20.75 C89.86601562 22.50570312 89.86601562 22.50570312 89.984375 24.296875 C89.99210937 25.63492188 89.99210937 25.63492188 90 27 C89 28 89 28 85.8125 28.6875 C82 28 82 28 80.37890625 25.91015625 C79.36368056 24.11439341 78.37190622 22.30519789 77.40234375 20.484375 C74.73742291 15.76323391 71.01582575 13.64451891 66 12 C63.32878748 11.76910427 60.74740269 11.62879598 58.07421875 11.5859375 C57.07920349 11.55947144 57.07920349 11.55947144 56.06408691 11.5324707 C53.6054632 11.46979301 51.14644743 11.42333818 48.6875 11.375 C43.180625 11.25125 37.67375 11.1275 32 11 C32 25.52 32 40.04 32 55 C37.7853125 54.8453125 37.7853125 54.8453125 43.6875 54.6875 C44.89494873 54.66260498 46.10239746 54.63770996 47.34643555 54.61206055 C48.308479 54.57894775 49.27052246 54.54583496 50.26171875 54.51171875 C51.24100342 54.48553467 52.22028809 54.45935059 53.22924805 54.43237305 C56.46100761 53.92806023 58.36467001 52.91369716 61 51 C62.86642222 48.31903846 62.86642222 48.31903846 64.3125 45.3125 C64.82425781 44.31863281 65.33601563 43.32476562 65.86328125 42.30078125 C66.23839844 41.54152344 66.61351562 40.78226563 67 40 C69.375 39.875 69.375 39.875 72 40 C74.54086249 42.54086249 74.24715629 44.17235035 74.27789307 47.63841248 C74.2738446 48.4061348 74.26979614 49.17385712 74.265625 49.96484375 C74.26753845 50.75395645 74.2694519 51.54306915 74.27142334 52.35609436 C74.27278533 54.0263806 74.2690879 55.69667742 74.26074219 57.36694336 C74.2500568 59.9239077 74.26062939 62.48016718 74.2734375 65.03710938 C74.27211563 66.65885572 74.26955266 68.28060162 74.265625 69.90234375 C74.26967346 70.66804184 74.27372192 71.43373993 74.27789307 72.22264099 C74.244398 76.01649251 74.15604644 77.76593033 72 81 C69.5625 81.4375 69.5625 81.4375 67 81 C64.8631028 78.8631028 63.83156188 76.65610551 62.5 73.9375 C60.47259634 69.96716783 59.23353916 68.41117972 55 67 C53.22833025 66.85164052 51.45232388 66.75229982 49.67578125 66.68359375 C48.64775391 66.64169922 47.61972656 66.59980469 46.56054688 66.55664062 C45.48869141 66.51732422 44.41683594 66.47800781 43.3125 66.4375 C42.22904297 66.39431641 41.14558594 66.35113281 40.02929688 66.30664062 C37.35299209 66.20053162 34.67659474 66.09847639 32 66 C32.06912457 71.42646953 32.15721073 76.85218667 32.26245117 82.27807617 C32.29559026 84.12174088 32.32365613 85.96550436 32.34643555 87.80932617 C32.38018512 90.46836208 32.43250966 93.12650187 32.48828125 95.78515625 C32.49467117 96.60210464 32.5010611 97.41905304 32.50764465 98.26075745 C32.65939595 104.2427541 33.62975257 109.20812202 37.625 113.9140625 C41.35349618 115.61886832 44.94906719 115.44340521 49 115.375 C49.84925049 115.36557373 50.69850098 115.35614746 51.57348633 115.34643555 C61.28795927 115.11489697 71.56582727 113.83389792 79 107 C81.88148288 103.46753412 84.45679086 99.77993179 87 96 C88 95 88 95 90.4375 94.8125 C93 95 93 95 95 97 C94.64179042 102.50619294 92.84231375 107.82320343 90.79296875 112.91015625 C89.54064628 116.21061201 88.61222107 119.60212474 87.6484375 122.99609375 C87 125 87 125 86 126 C83.36348867 126.11106994 80.7529258 126.15739168 78.11547852 126.16113281 C77.28949158 126.16609772 76.46350464 126.17106262 75.61248779 126.17617798 C72.86795228 126.19083653 70.12347455 126.19760733 67.37890625 126.203125 C65.47940569 126.20887293 63.57990516 126.2146307 61.68040466 126.22039795 C57.6931023 126.23091813 53.70582016 126.23675429 49.71850586 126.24023438 C44.59899505 126.24572458 39.47974949 126.26975951 34.360322 126.29820633 C30.43563546 126.31679096 26.51101338 126.32203605 22.58628654 126.32357025 C20.69835902 126.32660623 18.81043288 126.33466631 16.92254829 126.34775543 C14.28612966 126.36473089 11.65036648 126.36295689 9.01391602 126.35644531 C8.22786484 126.3656601 7.44181366 126.37487488 6.63194275 126.3843689 C4.46070862 126.36749268 4.46070862 126.36749268 1 126 C-1 123 -1 123 -1.1875 120.5625 C0.29217753 117.36951165 1.24762913 117.26671721 4.4375 116 C5.64212891 115.5978125 5.64212891 115.5978125 6.87109375 115.1875 C9.83881336 113.53211145 10.03650425 112.2583354 11 109 C11.2883515 105.99047166 11.28352977 102.99619058 11.2746582 99.97460938 C11.27976913 99.07482864 11.28488007 98.17504791 11.29014587 97.2480011 C11.30402276 94.27984936 11.30308675 91.31193028 11.30078125 88.34375 C11.30466876 86.27779046 11.30900355 84.21183173 11.31376648 82.14587402 C11.32122426 77.81841438 11.32094026 73.49103633 11.31567383 69.16357422 C11.3098749 63.61847954 11.32682267 58.07371841 11.3500185 52.52867889 C11.36474922 48.26330615 11.36562852 43.99801391 11.36250877 39.73262024 C11.36302216 37.68808836 11.36826306 35.643552 11.37832069 33.5990448 C11.39065701 30.74093924 11.38391055 27.88348574 11.37231445 25.02539062 C11.37995819 24.18160355 11.38760193 23.33781647 11.39547729 22.46846008 C11.35407982 17.85224088 11.07749798 14.69683301 8 11 C4.49705129 9.28432339 4.49705129 9.28432339 1 8 C0.34 7.34 -0.32 6.68 -1 6 C-0.67 4.02 -0.34 2.04 0 0 Z " fill="#141619" transform="translate(162,185)"/>
<path d="M0 0 C0.66 0.33 1.32 0.66 2 1 C1.67 2.32 1.34 3.64 1 5 C1.66 5.33 2.32 5.66 3 6 C3 75.63 3 145.26 3 217 C2.34 217 1.68 217 1 217 C1.33 218.98 1.66 220.96 2 223 C1.34 223 0.68 223 0 223 C0.33 224.32 0.66 225.64 1 227 C0.34 227 -0.32 227 -1 227 C-0.67 228.32 -0.34 229.64 0 231 C-0.66 231 -1.32 231 -2 231 C-1.67 231.99 -1.34 232.98 -1 234 C-1.66 234 -2.32 234 -3 234 C-2.67 234.99 -2.34 235.98 -2 237 C-3.21484375 239.91796875 -3.21484375 239.91796875 -4.9375 243.1875 C-5.50339844 244.27417969 -6.06929688 245.36085938 -6.65234375 246.48046875 C-7.09707031 247.31191406 -7.54179687 248.14335937 -8 249 C-8.66 249 -9.32 249 -10 249 C-10.33 250.32 -10.66 251.64 -11 253 C-11.66 253 -12.32 253 -13 253 C-13.33 254.32 -13.66 255.64 -14 257 C-14.66 257 -15.32 257 -16 257 C-16.33 257.99 -16.66 258.98 -17 260 C-17.66 260 -18.32 260 -19 260 C-19 260.66 -19 261.32 -19 262 C-20.86328125 263.7265625 -20.86328125 263.7265625 -23.3125 265.625 C-24.11300781 266.25664062 -24.91351563 266.88828125 -25.73828125 267.5390625 C-28 269 -28 269 -31 269 C-31.33 269.66 -31.66 270.32 -32 271 C-33.33333333 271.33333333 -34.66666667 271.66666667 -36 272 C-36.33 272.66 -36.66 273.32 -37 274 C-37.66 273.67 -38.32 273.34 -39 273 C-39.33 273.66 -39.66 274.32 -40 275 C-43.4375 276.6875 -43.4375 276.6875 -47 278 C-47.66 277.67 -48.32 277.34 -49 277 C-49.33 277.66 -49.66 278.32 -50 279 C-50.99 278.67 -51.98 278.34 -53 278 C-53.33 278.66 -53.66 279.32 -54 280 C-54.99 279.67 -55.98 279.34 -57 279 C-57.33 279.66 -57.66 280.32 -58 281 C-59.65 280.67 -61.3 280.34 -63 280 C-63 280.66 -63 281.32 -63 282 C-129.66 282 -196.32 282 -265 282 C-265 281.34 -265 280.68 -265 280 C-266.5159375 280.0309375 -266.5159375 280.0309375 -268.0625 280.0625 C-271.80327257 280.00312266 -275.31244898 279.60204915 -279 279 C-279 278.34 -279 277.68 -279 277 C-279.99 277.33 -280.98 277.66 -282 278 C-282.99 277.67 -283.98 277.34 -285 277 C-285 276.34 -285 275.68 -285 275 C-285.680625 275.0825 -286.36125 275.165 -287.0625 275.25 C-291.16875665 274.90053135 -293.52321895 273.18150968 -297 271 C-297 270.34 -297 269.68 -297 269 C-298.32 268.67 -299.64 268.34 -301 268 C-301 267.01 -301 266.02 -301 265 C-300.01 265 -299.02 265 -298 265 C-298.33 264.34 -298.66 263.68 -299 263 C-295.02611947 264.47916664 -291.45996232 266.39350417 -287.75 268.4375 C-280.83308635 272.09225144 -274.01869123 273.42430643 -266.32421875 274.4921875 C-263 275 -263 275 -262 276 C-259.56602637 276.10656254 -257.16009132 276.14778551 -254.7252655 276.14717102 C-253.56908776 276.15268605 -253.56908776 276.15268605 -252.38955289 276.1583125 C-249.78598116 276.1693952 -247.18244927 276.17320115 -244.57885742 276.17700195 C-242.71955741 276.18326396 -240.86025866 276.18991052 -239.0009613 276.19691467 C-232.86913941 276.21801706 -226.73731713 276.22833377 -220.60546875 276.23828125 C-218.49196166 276.24232875 -216.37845471 276.24644567 -214.26494789 276.25063133 C-204.319821 276.26970915 -194.37470158 276.28392568 -184.42955989 276.2922433 C-172.98034946 276.30197759 -161.53133433 276.32818589 -150.0821926 276.36874419 C-141.21993583 276.39904968 -132.35773448 276.41372641 -123.49542695 276.41702431 C-118.21074767 276.41936159 -112.92627635 276.42814551 -107.64165306 276.45348549 C-102.65198131 276.4770196 -97.66265057 276.48089927 -92.67293739 276.47072411 C-90.85752341 276.47023446 -89.0420912 276.47638258 -87.22673035 276.49028015 C-69.38711172 276.61901671 -51.01187692 274.45697725 -35 266 C-34.34 265.01 -33.68 264.02 -33 263 C-32.154375 262.62875 -31.30875 262.2575 -30.4375 261.875 C-16.09229613 254.05034335 -10.03217832 238.28705556 -5.25732422 223.5769043 C-4.98936035 222.75230713 -4.72139648 221.92770996 -4.4453125 221.078125 C-4.21344238 220.33981445 -3.98157227 219.60150391 -3.74267578 218.84082031 C-3 217 -3 217 -1 215 C-0.67 215.33 -0.34 215.66 0 216 C0 144.72 0 73.44 0 0 Z " fill="#303638" transform="translate(429,143)"/>
<path d="M0 0 C3.97388053 1.47916664 7.54003768 3.39350417 11.25 5.4375 C18.06463813 9.02896106 24.70648516 10.35870766 32.28515625 11.39453125 C35.5089406 11.91996403 38.05298796 12.6385149 41 14 C41 14.33 41 14.66 41 15 C66.40924152 15.093638 91.81845701 15.1640744 117.22783661 15.20724869 C129.02711268 15.22783232 140.82628124 15.25587234 152.62548828 15.30175781 C162.91535693 15.34175444 173.20514768 15.3674633 183.49509192 15.37635398 C188.93840021 15.38154706 194.38148573 15.39366444 199.82472229 15.42292023 C204.95962783 15.45029235 210.09422116 15.4584014 215.22919273 15.45243073 C217.10273123 15.45352129 218.97628136 15.46134419 220.84975624 15.4768219 C235.0848358 15.58854723 248.14769072 14.22670165 261.16015625 7.8828125 C263.69328124 6.66734276 266.31851926 5.825071 269 5 C266.7629196 8.3556206 266.57482962 8.19278041 263 9 C262.67 9.66 262.34 10.32 262 11 C261.34 10.67 260.68 10.34 260 10 C259.67 10.66 259.34 11.32 259 12 C255.5625 13.6875 255.5625 13.6875 252 15 C251.01 14.505 251.01 14.505 250 14 C249.67 14.66 249.34 15.32 249 16 C248.01 15.67 247.02 15.34 246 15 C245.67 15.66 245.34 16.32 245 17 C244.01 16.67 243.02 16.34 242 16 C241.67 16.66 241.34 17.32 241 18 C239.35 17.67 237.7 17.34 236 17 C236 17.66 236 18.32 236 19 C169.34 19 102.68 19 34 19 C34 18.34 34 17.68 34 17 C32.989375 17.020625 31.97875 17.04125 30.9375 17.0625 C27.19672743 17.00312266 23.68755102 16.60204915 20 16 C20 15.34 20 14.68 20 14 C19.01 14.33 18.02 14.66 17 15 C16.01 14.67 15.02 14.34 14 14 C14 13.34 14 12.68 14 12 C12.9790625 12.12375 12.9790625 12.12375 11.9375 12.25 C7.83124335 11.90053135 5.47678105 10.18150968 2 8 C2 7.34 2 6.68 2 6 C0.68 5.67 -0.64 5.34 -2 5 C-2 4.01 -2 3.02 -2 2 C-1.01 2 -0.02 2 1 2 C0.67 1.34 0.34 0.68 0 0 Z " fill="#858E92" transform="translate(130,406)"/>
<path d="M0 0 C0.99 0.495 0.99 0.495 2 1 C1.67 1.66 1.34 2.32 1 3 C1.66 3.33 2.32 3.66 3 4 C2.67 4.99 2.34 5.98 2 7 C2.66 7.33 3.32 7.66 4 8 C4 79.94 4 151.88 4 226 C3.01 226 2.02 226 1 226 C0.4375 224.0625 0.4375 224.0625 0 222 C0.33 221.67 0.66 221.34 1 221 C1.10008773 218.27417604 1.13439673 215.57361914 1.12698364 212.84727478 C1.12854363 211.98226823 1.13010362 211.11726168 1.13171089 210.22604281 C1.13572495 207.30424273 1.1325296 204.38249389 1.12939453 201.46069336 C1.13074846 199.37503021 1.13252835 197.28936729 1.13470459 195.20370483 C1.13928187 189.51951795 1.13748764 183.83534913 1.1343255 178.15116191 C1.13180107 172.20913693 1.13413989 166.26711354 1.13571167 160.3250885 C1.13753411 150.3369214 1.13512614 140.34876168 1.13037109 130.3605957 C1.12493874 118.81650732 1.12668335 107.27243662 1.1321975 95.72834867 C1.13673894 85.82424993 1.13737381 75.92015652 1.13475883 66.01605707 C1.1332004 60.09803736 1.13299023 54.18002594 1.13629532 48.26200676 C1.1391886 42.69135463 1.1371715 37.12072521 1.13140106 31.55007553 C1.13008084 29.50710017 1.13045504 27.46412289 1.13266373 25.4211483 C1.1354045 22.62794347 1.13195822 19.83481097 1.12698364 17.04161072 C1.13032973 15.83443001 1.13032973 15.83443001 1.13374341 14.60286182 C1.11669499 9.65209947 0.70224341 4.90208136 0 0 Z " fill="#ACB3B7" transform="translate(426,133)"/>
<path d="M0 0 C0.99 1.485 0.99 1.485 2 3 C-2.85617317 3.96884557 -7.57159397 4.13867065 -12.50411987 4.12025452 C-13.34637466 4.12110894 -14.18862944 4.12196337 -15.05640709 4.12284368 C-17.87079713 4.12448715 -20.6851272 4.11899568 -23.49951172 4.11352539 C-25.52007547 4.11324325 -27.54063932 4.11340178 -29.561203 4.1139679 C-35.04208685 4.11425481 -40.52294881 4.10837507 -46.00382757 4.10139394 C-51.73335503 4.0951429 -57.46288299 4.09455521 -63.19241333 4.09336853 C-74.04012914 4.09026039 -84.88783486 4.08205394 -95.73554623 4.07201904 C-108.08611409 4.06084188 -120.43668244 4.05534341 -132.7872541 4.05032361 C-158.19150832 4.03987091 -183.59575359 4.02228145 -209 4 C-209 3.67 -209 3.34 -209 3 C-203.62325462 2.24573624 -198.38086212 1.85079685 -192.94786072 1.84851074 C-192.17825644 1.84427833 -191.40865215 1.84004592 -190.61572653 1.83568525 C-188.05883833 1.82275756 -185.50198122 1.81665749 -182.94506836 1.81054688 C-181.10305088 1.80259671 -179.26103525 1.79420815 -177.41902161 1.78541565 C-173.4631142 1.76741063 -169.50721072 1.7523767 -165.55128288 1.73963928 C-159.29397346 1.71935691 -153.03670967 1.6917138 -146.7794342 1.66296387 C-132.36951366 1.59787302 -117.9595592 1.54236972 -103.54959869 1.48697662 C-90.33686402 1.43609165 -77.12414594 1.38317692 -63.91145235 1.32245111 C-57.69308599 1.29414916 -51.47472489 1.27053678 -45.25632656 1.25052643 C-41.3871615 1.23711691 -37.51802189 1.21970618 -33.6488781 1.20121574 C-31.85704188 1.19347647 -30.06519759 1.18739959 -28.27334976 1.18312263 C-25.82390866 1.1770486 -23.37456549 1.16498706 -20.92515564 1.15148926 C-20.21950421 1.15119327 -19.51385278 1.15089728 -18.78681797 1.15059233 C-12.49003985 1.10451767 -6.25970553 -0.58229819 0 0 Z " fill="#97A0A3" transform="translate(372,418)"/>
<path d="M0 0 C0.99 0.495 0.99 0.495 2 1 C0.6875 2.5 0.6875 2.5 -1 4 C-1.99 4 -2.98 4 -4 4 C-4.33 4.66 -4.66 5.32 -5 6 C-5.99 5.505 -5.99 5.505 -7 5 C-7.33 5.66 -7.66 6.32 -8 7 C-11.4375 8.6875 -11.4375 8.6875 -15 10 C-15.99 9.505 -15.99 9.505 -17 9 C-17.33 9.66 -17.66 10.32 -18 11 C-18.99 10.67 -19.98 10.34 -21 10 C-21.33 10.66 -21.66 11.32 -22 12 C-22.99 11.67 -23.98 11.34 -25 11 C-25.33 11.66 -25.66 12.32 -26 13 C-27.65 12.67 -29.3 12.34 -31 12 C-31 12.66 -31 13.32 -31 14 C-130.495 13.505 -130.495 13.505 -232 13 C-232 12.67 -232 12.34 -232 12 C-230.99007775 11.99853344 -229.98015551 11.99706688 -228.93962955 11.99555588 C-204.30689488 11.95887621 -179.67429527 11.89931607 -155.04167271 11.81609726 C-143.12926078 11.77637596 -131.21691426 11.74394844 -119.30444336 11.72900391 C-108.91524119 11.71595151 -98.52618335 11.68889563 -88.13706249 11.64538693 C-82.64179914 11.62285267 -77.14671326 11.60708448 -71.65139961 11.60811615 C-66.46634154 11.60886753 -61.28167458 11.59072656 -56.09671783 11.55883217 C-54.20589676 11.55039698 -52.31503148 11.54853917 -50.42420006 11.55419731 C-33.23356208 11.59873895 -17.1167389 9.22236067 -1.80078125 0.7890625 C-1.20652344 0.52867187 -0.61226562 0.26828125 0 0 Z " fill="#000000" transform="translate(397,411)"/>
<path d="M0 0 C0.33 0 0.66 0 1 0 C1 66.33 1 132.66 1 201 C0.01 200.67 -0.98 200.34 -2 200 C-1.83685555 199.33352227 -1.67371109 198.66704454 -1.50562286 197.98037052 C-0.8991393 194.40548125 -0.88009452 190.92623373 -0.91003418 187.31407166 C-0.91205998 186.55937832 -0.91408579 185.80468498 -0.91617298 185.02712214 C-0.92100756 183.39416436 -0.92807546 181.76121198 -0.93713474 180.12827218 C-0.96129057 175.70581614 -0.96825532 171.28331588 -0.97827148 166.86080933 C-0.98081389 165.9514158 -0.98335629 165.04202227 -0.98597574 164.10507137 C-1.00889288 155.15373788 -0.9671529 146.20331518 -0.90820312 137.25219727 C-0.89828393 135.68680797 -0.88836828 134.12141866 -0.87845612 132.55602932 C-0.85267876 128.55224504 -0.82551397 124.54847116 -0.79807091 120.544698 C-0.76910333 116.27678866 -0.74164086 112.00886957 -0.71398926 107.74095154 C-0.66188051 99.73115162 -0.6085028 91.72136073 -0.5546174 83.71157259 C-0.49313065 74.56211858 -0.43313738 65.41265494 -0.37324238 56.26319039 C-0.25043863 37.50878277 -0.12584769 18.75438743 0 0 Z " fill="#C8CDD1" transform="translate(428,159)"/>
<path d="M0 0 C0.33 0 0.66 0 1 0 C1 37.29 1 74.58 1 113 C0.01 113 -0.98 113 -2 113 C-2 82.97 -2 52.94 -2 22 C-1.34 22 -0.68 22 0 22 C0 14.74 0 7.48 0 0 Z " fill="#A5B1AE" transform="translate(101,196)"/>
<path d="M0 0 C0.66 0.66 1.32 1.32 2 2 C1.585985 12.97139752 -2.76434862 23.49428869 -8 33 C-7.34 33.33 -6.68 33.66 -6 34 C-6.66 34 -7.32 34 -8 34 C-8.33 35.32 -8.66 36.64 -9 38 C-9.66 38 -10.32 38 -11 38 C-11.33 38.66 -11.66 39.32 -12 40 C-12 39.34 -12 38.68 -12 38 C-12.66 38 -13.32 38 -14 38 C-14.6875 36.3125 -14.6875 36.3125 -15 34 C-13.8125 31.6875 -13.8125 31.6875 -12 29 C-7.14653593 21.14479509 -4.48006567 12.61785976 -1.64501953 3.87255859 C-1 2 -1 2 0 0 Z " fill="#A6ADB1" transform="translate(427,358)"/>
<path d="M0 0 C2.24684529 2.08635634 4.0053557 4.00865152 5.625 6.625 C8.89132835 11.76156475 13.6556853 15.79191816 18 20 C20 22 20 22 21 25 C15.25 25.125 15.25 25.125 13 24 C13 23.34 13 22.68 13 22 C12.4225 21.75507813 11.845 21.51015625 11.25 21.2578125 C4.36217118 17.40732486 0.06443621 10.02266631 -3 3 C-2.01 2.67 -1.02 2.34 0 2 C0 1.34 0 0.68 0 0 Z " fill="#D0D4D6" transform="translate(111,384)"/>
<path d="M0 0 C3.97388053 1.47916664 7.54003768 3.39350417 11.25 5.4375 C19.1423359 9.60307876 27.22595887 10.88465579 36 12 C36 12.33 36 12.66 36 13 C28.64460426 14.03233624 22.13870127 14.50839379 14.9140625 12.5 C12.80783151 11.90930589 12.80783151 11.90930589 9.8125 11.5625 C6.65450361 10.93090072 4.58726194 9.90239849 2 8 C2 7.34 2 6.68 2 6 C0.68 5.67 -0.64 5.34 -2 5 C-2 4.01 -2 3.02 -2 2 C-1.01 2 -0.02 2 1 2 C0.67 1.34 0.34 0.68 0 0 Z " fill="#9CA4A6" transform="translate(130,406)"/>
<path d="M0 0 C0.33 0.99 0.66 1.98 1 3 C1.66 3 2.32 3 3 3 C3 4.32 3 5.64 3 7 C2.34 7 1.68 7 1 7 C0.67 7.99 0.34 8.98 0 10 C-0.66 10 -1.32 10 -2 10 C-2 10.66 -2 11.32 -2 12 C-3.86328125 13.76171875 -3.86328125 13.76171875 -6.3125 15.6875 C-7.51326172 16.65236328 -7.51326172 16.65236328 -8.73828125 17.63671875 C-9.48464844 18.08660156 -10.23101562 18.53648437 -11 19 C-11.99 18.67 -12.98 18.34 -14 18 C-12.625 16.5 -12.625 16.5 -11 15 C-10.34 15 -9.68 15 -9 15 C-9 14.01 -9 13.02 -9 12 C-8.01 11.67 -7.02 11.34 -6 11 C-5.67 10.34 -5.34 9.68 -5 9 C-5.66 9 -6.32 9 -7 9 C-5.44499019 5.18315774 -2.96404505 2.80804268 0 0 Z " fill="#82878B" transform="translate(412,393)"/>
<path d="M0 0 C0.66 0.33 1.32 0.66 2 1 C2.6328125 3.06640625 2.6328125 3.06640625 3.125 5.5625 C3.29257812 6.38878906 3.46015625 7.21507812 3.6328125 8.06640625 C3.75398438 8.70449219 3.87515625 9.34257812 4 10 C2.54207116 10.05399736 1.08357288 10.09279177 -0.375 10.125 C-1.18710937 10.14820313 -1.99921875 10.17140625 -2.8359375 10.1953125 C-5 10 -5 10 -7 8 C-7.125 5.375 -7.125 5.375 -7 3 C-4.69631264 1.93347808 -2.35981813 0.93578995 0 0 Z " fill="#5D6268" transform="translate(336,301)"/>
<path d="M0 0 C0.99 0.33 1.98 0.66 3 1 C7.32724302 2.11844962 11.50493233 2.04440794 15.9375 1.9375 C22.25399688 1.7971334 27.17136697 2.50201441 33 5 C33 5.33 33 5.66 33 6 C29.37 6 25.74 6 22 6 C21.67 6.66 21.34 7.32 21 8 C21 7.34 21 6.68 21 6 C19.989375 6.020625 18.97875 6.04125 17.9375 6.0625 C14.19672743 6.00312266 10.68755102 5.60204915 7 5 C7 4.34 7 3.68 7 3 C6.01 3.33 5.02 3.66 4 4 C3.01 3.67 2.02 3.34 1 3 C0.67 2.01 0.34 1.02 0 0 Z " fill="#6A7274" transform="translate(143,417)"/>
<path d="M0 0 C0 0.66 0 1.32 0 2 C-0.78375 2.2475 -1.5675 2.495 -2.375 2.75 C-5.07758731 3.69583215 -5.07758731 3.69583215 -5.796875 5.703125 C-7.5439553 9.03846012 -10.19911296 11.4075339 -12.875 14 C-13.40480469 14.52078125 -13.93460937 15.0415625 -14.48046875 15.578125 C-15.5107573 16.59051772 -16.54291431 17.60101331 -17.57714844 18.609375 C-19.40008986 20.39102812 -21.20195068 22.19326445 -23 24 C-23.33 23.01 -23.66 22.02 -24 21 C-21.07380414 17.9997088 -18.13792339 15.00934707 -15.19262695 12.02783203 C-14.19185072 11.01195893 -13.19378218 9.99341103 -12.19848633 8.97216797 C-10.7682527 7.50559059 -9.32859157 6.04887437 -7.88671875 4.59375 C-7.02264404 3.71396484 -6.15856934 2.83417969 -5.26831055 1.92773438 C-3 0 -3 0 0 0 Z " fill="#E8EDF1" transform="translate(347,210)"/>
<path d="M0 0 C3.56764821 0.57619097 5.25159497 1.86969484 7.75 4.4375 C8.67039062 5.36369141 8.67039062 5.36369141 9.609375 6.30859375 C11 8 11 8 11 10 C11.66 10 12.32 10 13 10 C17.15839951 15.54119261 20.55386403 21.52493419 23 28 C22.34 28.66 21.68 29.32 21 30 C19.68462636 27.56401192 18.37260857 25.1263175 17.0625 22.6875 C16.50272461 21.65206055 16.50272461 21.65206055 15.93164062 20.59570312 C15.57392578 19.92861328 15.21621094 19.26152344 14.84765625 18.57421875 C14.51773682 17.96151123 14.18781738 17.34880371 13.84790039 16.7175293 C13 15 13 15 12 12 C11.34 12 10.68 12 10 12 C7 8.53846154 7 8.53846154 7 6 C6.34 6 5.68 6 5 6 C3.2856382 4.04072937 1.61594832 2.04119788 0 0 Z " fill="#B2B4AA" transform="translate(404,103)"/>
<path d="M0 0 C0.66 0.33 1.32 0.66 2 1 C0.6875 2.5 0.6875 2.5 -1 4 C-1.99 4 -2.98 4 -4 4 C-4.33 4.66 -4.66 5.32 -5 6 C-5.66 5.67 -6.32 5.34 -7 5 C-7.33 5.66 -7.66 6.32 -8 7 C-11.4375 8.6875 -11.4375 8.6875 -15 10 C-15.66 9.67 -16.32 9.34 -17 9 C-17.33 9.66 -17.66 10.32 -18 11 C-18.99 10.67 -19.98 10.34 -21 10 C-21.33 10.66 -21.66 11.32 -22 12 C-22.99 11.67 -23.98 11.34 -25 11 C-25.33 11.66 -25.66 12.32 -26 13 C-27.65 12.67 -29.3 12.34 -31 12 C-31 12.66 -31 13.32 -31 14 C-31.66 14 -32.32 14 -33 14 C-33 13.01 -33 12.02 -33 11 C-31.91203125 10.76925781 -30.8240625 10.53851563 -29.703125 10.30078125 C-19.93135878 8.15801631 -10.63774384 5.65488559 -1.80078125 0.7890625 C-0.90939453 0.39847656 -0.90939453 0.39847656 0 0 Z " fill="#2C3233" transform="translate(397,411)"/>
<path d="M0 0 C3.02896964 0.45893479 5.2897209 1.14190411 8.0625 2.5 C12.30447281 4.41632982 16.57841293 4.53375751 21.17578125 4.81640625 C24.16452892 5.01069552 27.06049278 5.42842915 30 6 C30 6.33 30 6.66 30 7 C21.39978803 8.20704729 13.04476348 9.02238174 5 5 C3.31337542 3.35353315 1.64488294 1.68816933 0 0 Z " fill="#A3ADAF" transform="translate(136,412)"/>
<path d="M0 0 C5.76162339 6.91394807 9.56817987 15.90912205 9 25 C8.34 25 7.68 25 7 25 C6.59007812 23.75863281 6.18015625 22.51726562 5.7578125 21.23828125 C5.21362211 19.5963275 4.66934681 17.9544019 4.125 16.3125 C3.85558594 15.49587891 3.58617187 14.67925781 3.30859375 13.83789062 C2.20694382 10.51950607 1.11161658 7.26240296 -0.2578125 4.04296875 C-0.50273437 3.36878906 -0.74765625 2.69460937 -1 2 C-0.67 1.34 -0.34 0.68 0 0 Z " fill="#C7CCD1" transform="translate(419,121)"/>
<path d="M0 0 C0.99 0.33 1.98 0.66 3 1 C2.67 2.65 2.34 4.3 2 6 C2.66 6.33 3.32 6.66 4 7 C3.34 7 2.68 7 2 7 C1.67 8.32 1.34 9.64 1 11 C0.34 11 -0.32 11 -1 11 C-1.33 11.66 -1.66 12.32 -2 13 C-2 12.34 -2 11.68 -2 11 C-2.66 11 -3.32 11 -4 11 C-4.65234375 9.234375 -4.65234375 9.234375 -5 7 C-4.00390625 5.078125 -4.00390625 5.078125 -2.5625 3.25 C-2.08941406 2.63640625 -1.61632812 2.0228125 -1.12890625 1.390625 C-0.75636719 0.93171875 -0.38382812 0.4728125 0 0 Z " fill="#9FA9AD" transform="translate(417,385)"/>
<path d="M0 0 C0.99 0.33 1.98 0.66 3 1 C2.67 1.99 2.34 2.98 2 4 C1.01 4 0.02 4 -1 4 C-1 4.99 -1 5.98 -1 7 C-3.08203125 8.640625 -3.08203125 8.640625 -5.8125 10.25 C-7.15248047 11.06210937 -7.15248047 11.06210937 -8.51953125 11.890625 C-11 13 -11 13 -14 12 C-11.69 10.35 -9.38 8.7 -7 7 C-7.33 6.34 -7.66 5.68 -8 5 C-7.05125 4.54625 -6.1025 4.0925 -5.125 3.625 C-1.99686321 2.19761746 -1.99686321 2.19761746 0 0 Z " fill="#97A0A4" transform="translate(404,401)"/>
<path d="M0 0 C0.33 0 0.66 0 1 0 C1 14.19 1 28.38 1 43 C0.01 42.67 -0.98 42.34 -2 42 C-1.84152588 41.35200439 -1.68305176 40.70400879 -1.51977539 40.03637695 C-0.85729303 36.16634731 -0.76710874 32.33335999 -0.68359375 28.41796875 C-0.66281265 27.60378983 -0.64203156 26.7896109 -0.62062073 25.95075989 C-0.55550537 23.36308821 -0.49641792 20.77531947 -0.4375 18.1875 C-0.39427858 16.42772455 -0.35066315 14.66795872 -0.30664062 12.90820312 C-0.1998632 8.60556691 -0.09848982 4.30283357 0 0 Z " fill="#BFC5CA" transform="translate(428,317)"/>
<path d="M0 0 C0.33 0 0.66 0 1 0 C1 10.23 1 20.46 1 31 C0.67 31 0.34 31 0 31 C0 27.37 0 23.74 0 20 C-0.66 20 -1.32 20 -2 20 C-1.85879984 17.41633755 -1.71221667 14.83317115 -1.5625 12.25 C-1.52318359 11.52039063 -1.48386719 10.79078125 -1.44335938 10.0390625 C-1.23852902 6.5727027 -0.9147998 3.34666974 0 0 Z " fill="#B6C0BD" transform="translate(101,153)"/>
<path d="M0 0 C2.79872437 2.52788007 4.45773019 4.20411134 5 8 C4.01 8.495 4.01 8.495 3 9 C3.99 10.65 4.98 12.3 6 14 C2.59635112 12.60064115 1.09193812 11.12995268 -0.8125 8 C-1.25207031 7.29875 -1.69164063 6.5975 -2.14453125 5.875 C-2.56798828 4.946875 -2.56798828 4.946875 -3 4 C-2.67 3.34 -2.34 2.68 -2 2 C-1.34 2 -0.68 2 0 2 C0 1.34 0 0.68 0 0 Z " fill="#AAB0AF" transform="translate(111,384)"/>
<path d="M0 0 C4.26720838 4.04512318 7.83260052 8.4387896 11.375 13.125 C11.93316406 13.84042969 12.49132812 14.55585938 13.06640625 15.29296875 C13.84951172 16.32744141 13.84951172 16.32744141 14.6484375 17.3828125 C15.12458496 18.00559082 15.60073242 18.62836914 16.09130859 19.27001953 C16.39117676 19.84091309 16.69104492 20.41180664 17 21 C16.67 21.99 16.34 22.98 16 24 C13.53766755 20.8077271 11.07799931 17.61351307 8.625 14.4140625 C7.09524574 12.41944756 5.5555137 10.43571076 4 8.4609375 C3.46375 7.77257812 2.9275 7.08421875 2.375 6.375 C1.90835937 5.78460938 1.44171875 5.19421875 0.9609375 4.5859375 C0 3 0 3 0 0 Z " fill="#131415" transform="translate(327,252)"/>
<path d="M0 0 C0.556875 0.495 1.11375 0.99 1.6875 1.5 C3.89890894 3.23241495 3.89890894 3.23241495 6.5625 3 C9 3 9 3 10.75 4.3125 C12 6 12 6 13 9 C7.25 9.125 7.25 9.125 5 8 C5 7.34 5 6.68 5 6 C4.360625 5.7525 3.72125 5.505 3.0625 5.25 C1 4 1 4 0.25 1.875 C0.1675 1.25625 0.085 0.6375 0 0 Z " fill="#BEC2C3" transform="translate(119,400)"/>
<path d="M0 0 C13.2 0 26.4 0 40 0 C40 0.99 40 1.98 40 3 C39.34 2.67 38.68 2.34 38 2 C35.15791974 1.84293669 32.33662693 1.7415043 29.4921875 1.68359375 C28.65156769 1.66281265 27.81094788 1.64203156 26.94485474 1.62062073 C24.25498765 1.55514561 21.56502157 1.4962498 18.875 1.4375 C17.05337511 1.39431284 15.23176029 1.35069848 13.41015625 1.30664062 C8.94020606 1.19946632 4.47015614 1.09819315 0 1 C0 0.67 0 0.34 0 0 Z " fill="#BABDBB" transform="translate(331,184)"/>
<path d="M0 0 C1.98 0.66 3.96 1.32 6 2 C5.625 4.9375 5.625 4.9375 5 8 C2.27157939 9.36421031 0.39046682 8.87807211 -2.625 8.5625 C-3.62789063 8.46066406 -4.63078125 8.35882813 -5.6640625 8.25390625 C-6.43492187 8.17011719 -7.20578125 8.08632813 -8 8 C-8 7.67 -8 7.34 -8 7 C-4.37 7 -0.74 7 3 7 C3 5.68 3 4.36 3 3 C2.34 3 1.68 3 1 3 C0.67 2.01 0.34 1.02 0 0 Z " fill="#252728" transform="translate(304,302)"/>
<path d="M0 0 C0 2.64 0 5.28 0 8 C-0.99 8.33 -1.98 8.66 -3 9 C-5 7 -5 7 -5.125 4.375 C-5.08375 3.59125 -5.0425 2.8075 -5 2 C-1.125 0 -1.125 0 0 0 Z " fill="#7E8086" transform="translate(334,302)"/>
<path d="M0 0 C0.66 0 1.32 0 2 0 C3.4375 2.01171875 3.4375 2.01171875 5 4.6875 C5.515625 5.55761719 6.03125 6.42773438 6.5625 7.32421875 C7.91214843 9.83647195 9.00011557 12.33203915 10 15 C9.34 15.66 8.68 16.32 8 17 C6.66161267 14.54429825 5.32913768 12.08570084 4 9.625 C3.6184375 8.92632812 3.236875 8.22765625 2.84375 7.5078125 C0 2.2265625 0 2.2265625 0 0 Z " fill="#6B807C" transform="translate(417,116)"/>
<path d="M0 0 C1.17949219 0.10183594 2.35898438 0.20367187 3.57421875 0.30859375 C4.47785156 0.39238281 5.38148438 0.47617187 6.3125 0.5625 C6.3125 0.8925 6.3125 1.2225 6.3125 1.5625 C1.24178099 2.27417986 -3.56958358 2.66912326 -8.6875 2.5625 C-9.0175 1.9025 -9.3475 1.2425 -9.6875 0.5625 C-6.14075997 -0.61974668 -3.71227005 -0.33079634 0 0 Z " fill="#AAB3B5" transform="translate(159.6875,417.4375)"/>
<path d="M0 0 C2.52940738 3.13164723 4.44920018 6.27808042 6 10 C5.6875 12.375 5.6875 12.375 5 14 C5 13.34 5 12.68 5 12 C4.34 12 3.68 12 3 12 C2.30314502 10.3789897 1.61777139 8.75303934 0.9375 7.125 C0.55464844 6.22007813 0.17179687 5.31515625 -0.22265625 4.3828125 C-1 2 -1 2 0 0 Z " fill="#D2D6D9" transform="translate(419,121)"/>
<path d="M0 0 C-1.48781815 3.78717347 -3.61988409 5.77407001 -7 8 C-7.99 7.67 -8.98 7.34 -10 7 C-8.625 5.5 -8.625 5.5 -7 4 C-6.34 4 -5.68 4 -5 4 C-5 3.01 -5 2.02 -5 1 C-2 0 -2 0 0 0 Z " fill="#545E69" transform="translate(408,404)"/>
<path d="M0 0 C6.24675325 6.07792208 6.24675325 6.07792208 8 9 C7.67 9.99 7.34 10.98 7 12 C5.82455195 10.56967163 4.65989738 9.13046758 3.5 7.6875 C2.8503125 6.88699219 2.200625 6.08648437 1.53125 5.26171875 C0 3 0 3 0 0 Z " fill="#191A1B" transform="translate(327,252)"/>
<path d="M0 0 C0.66 0.33 1.32 0.66 2 1 C2.6328125 3.06640625 2.6328125 3.06640625 3.125 5.5625 C3.29257812 6.38878906 3.46015625 7.21507812 3.6328125 8.06640625 C3.75398438 8.70449219 3.87515625 9.34257812 4 10 C2.35 10 0.7 10 -1 10 C-0.34 9.67 0.32 9.34 1 9 C1 6.69 1 4.38 1 2 C0.34 1.67 -0.32 1.34 -1 1 C-0.67 0.67 -0.34 0.34 0 0 Z " fill="#333A44" transform="translate(336,301)"/>
<path d="M0 0 C3.3 1.65 6.6 3.3 10 5 C9.01 5.66 8.02 6.32 7 7 C3.535 5.02 3.535 5.02 0 3 C0 2.01 0 1.02 0 0 Z " fill="#5A5E61" transform="translate(132,411)"/>
<path d="M0 0 C6.57142857 4 6.57142857 4 8 8 C7.01 8 6.02 8 5 8 C5 7.34 5 6.68 5 6 C4.360625 5.7525 3.72125 5.505 3.0625 5.25 C1 4 1 4 0.25 1.875 C0.1675 1.25625 0.085 0.6375 0 0 Z " fill="#A5A5A3" transform="translate(119,400)"/>
<path d="M0 0 C0.94875 0.04125 1.8975 0.0825 2.875 0.125 C2.2975 0.3725 1.72 0.62 1.125 0.875 C-1.25949889 2.06490475 -1.25949889 2.06490475 -3.25 4.25 C-3.86875 4.86875 -4.4875 5.4875 -5.125 6.125 C-5.785 6.125 -6.445 6.125 -7.125 6.125 C-4.34782609 0.17391304 -4.34782609 0.17391304 0 0 Z " fill="#E6ECEF" transform="translate(304.125,193.875)"/>
<path d="M0 0 C0 0.66 0 1.32 0 2 C-5.17578125 5.22265625 -5.17578125 5.22265625 -7 6 C-7.99 5.67 -8.98 5.34 -10 5 C-8.71186658 4.16121545 -7.41936744 3.32913217 -6.125 2.5 C-5.40570313 2.0359375 -4.68640625 1.571875 -3.9453125 1.09375 C-2 0 -2 0 0 0 Z " fill="#A2ADB1" transform="translate(400,408)"/>
<path d="M0 0 C0.33 0 0.66 0 1 0 C1 2.64 1 5.28 1 8 C0.01 8.33 -0.98 8.66 -2 9 C-2.25 3.375 -2.25 3.375 0 0 Z " fill="#F2F4F3" transform="translate(104,353)"/>
<path d="M0 0 C0.33 0.99 0.66 1.98 1 3 C0.67 3.66 0.34 4.32 0 5 C0.66 5.33 1.32 5.66 2 6 C1.34 6 0.68 6 0 6 C-0.66 7.32 -1.32 8.64 -2 10 C-2 6.09567131 -1.31626692 3.61973402 0 0 Z " fill="#6F7274" transform="translate(419,386)"/>
<path d="M0 0 C0.33 0 0.66 0 1 0 C1 2.64 1 5.28 1 8 C0.01 8 -0.98 8 -2 8 C-1.125 2.25 -1.125 2.25 0 0 Z " fill="#D0DCE0" transform="translate(254,292)"/>
<path d="M0 0 C1.5625 1.25 1.5625 1.25 3 3 C2.6875 5.1875 2.6875 5.1875 2 7 C-0.51083114 5.74458443 -0.87125446 4.49936512 -2 2 C-1.34 1.34 -0.68 0.68 0 0 Z " fill="#A9A8AA" transform="translate(107,379)"/>
<path d="M0 0 C0 1.98 0 3.96 0 6 C-0.99 6 -1.98 6 -3 6 C-3 4.35 -3 2.7 -3 1 C-1 0 -1 0 0 0 Z " fill="#96979B" transform="translate(332,303)"/>
</svg>
